<svg width="16" height="16" viewBox="0 0 16 16" fill="none" xmlns="http://www.w3.org/2000/svg">
<path d="M6.62301 10.3307C6.56351 10.1001 6.44328 9.88958 6.27484 9.72114C6.1064 9.5527 5.8959 9.43247 5.66524 9.37297L1.57624 8.31856C1.50648 8.29876 1.44508 8.25674 1.40136 8.19888C1.35764 8.14103 1.33398 8.07049 1.33398 7.99797C1.33398 7.92545 1.35764 7.85491 1.40136 7.79705C1.44508 7.7392 1.50648 7.69718 1.57624 7.67738L5.66524 6.6223C5.89582 6.56286 6.10626 6.44273 6.2747 6.27442C6.44313 6.1061 6.5634 5.89574 6.62301 5.66521L7.67742 1.5762C7.69702 1.50617 7.73899 1.44446 7.79694 1.40051C7.85488 1.35656 7.92561 1.33276 7.99834 1.33276C8.07107 1.33276 8.1418 1.35656 8.19974 1.40051C8.25769 1.44446 8.29966 1.50617 8.31926 1.5762L9.373 5.66521C9.43251 5.89586 9.55273 6.10636 9.72117 6.2748C9.88961 6.44324 10.1001 6.56347 10.3308 6.62297L14.4198 7.67671C14.4901 7.69611 14.5521 7.73804 14.5963 7.79607C14.6405 7.8541 14.6644 7.92503 14.6644 7.99797C14.6644 8.07091 14.6405 8.14184 14.5963 8.19987C14.5521 8.2579 14.4901 8.29983 14.4198 8.31922L10.3308 9.37297C10.1001 9.43247 9.88961 9.5527 9.72117 9.72114C9.55273 9.88958 9.43251 10.1001 9.373 10.3307L8.3186 14.4197C8.299 14.4898 8.25702 14.5515 8.19908 14.5954C8.14113 14.6394 8.0704 14.6632 7.99767 14.6632C7.92495 14.6632 7.85421 14.6394 7.79627 14.5954C7.73833 14.5515 7.69635 14.4898 7.67675 14.4197L6.62301 10.3307Z" stroke="#4F39F6" stroke-width="1.33301" stroke-linecap="round" stroke-linejoin="round"/>
<path d="M13.3301 1.99951V4.66553" stroke="#4F39F6" stroke-width="1.33301" stroke-linecap="round" stroke-linejoin="round"/>
<path d="M14.6631 3.33252H11.9971" stroke="#4F39F6" stroke-width="1.33301" stroke-linecap="round" stroke-linejoin="round"/>
<path d="M2.66602 11.3306V12.6636" stroke="#4F39F6" stroke-width="1.33301" stroke-linecap="round" stroke-linejoin="round"/>
<path d="M3.33252 11.9971H1.99951" stroke="#4F39F6" stroke-width="1.33301" stroke-linecap="round" stroke-linejoin="round"/>
</svg>
