<svg width="40" height="40" viewBox="0 0 40 40" fill="none" xmlns="http://www.w3.org/2000/svg">
<path d="M11.6657 26.664C10.0242 26.6659 8.43972 26.062 7.21587 24.9681C5.99201 23.8741 5.21481 22.3671 5.03315 20.7357C4.85149 19.1043 5.27816 17.4633 6.2314 16.1269C7.18465 14.7906 8.59745 13.853 10.1991 13.4937C9.73571 11.3324 10.1498 9.07548 11.3504 7.21952C12.551 5.36356 14.4397 4.06054 16.601 3.59712C18.7623 3.1337 21.0192 3.54783 22.8751 4.74842C24.7311 5.949 26.0341 7.83769 26.4975 9.999H26.6642C28.7306 9.99692 30.724 10.7627 32.2575 12.1477C33.791 13.5328 34.7552 15.4382 34.9629 17.4941C35.1706 19.55 34.6069 21.6098 33.3813 23.2735C32.1558 24.9372 30.3557 26.0862 28.3307 26.4974M24.9977 21.6645L19.9982 26.664M19.9982 26.664L14.9987 21.6645M19.9982 26.664V13.332" stroke="white" stroke-width="4.16626" stroke-linecap="round" stroke-linejoin="round"/>
</svg>
