<svg xmlns="http://www.w3.org/2000/svg" width="20" height="20" viewBox="0 0 20 20" fill="none">
  <g clip-path="url(#clip0_243_17437)">
    <path d="M16.6602 10.8291C16.6602 14.9941 13.7446 17.0767 10.2793 18.2845C10.0979 18.346 9.90075 18.3431 9.7212 18.2762C6.24756 17.0767 3.33203 14.9941 3.33203 10.8291V4.99806C3.33203 4.77713 3.41979 4.56525 3.57601 4.40903C3.73223 4.25281 3.94411 4.16505 4.16504 4.16505C5.83105 4.16505 7.91357 3.16544 9.36301 1.89927C9.53948 1.74849 9.76398 1.66565 9.99609 1.66565C10.2282 1.66565 10.4527 1.74849 10.6292 1.89927C12.0869 3.17377 14.1611 4.16505 15.8271 4.16505C16.0481 4.16505 16.26 4.25281 16.4162 4.40903C16.5724 4.56525 16.6602 4.77713 16.6602 4.99806V10.8291Z" stroke="white" stroke-width="1.66602" stroke-linecap="round" stroke-linejoin="round"/>
  </g>
  <defs>
    <clipPath id="clip0_243_17437">
      <rect width="19.9922" height="19.9922" fill="white"/>
    </clipPath>
  </defs>
</svg>