<svg width="32" height="32" viewBox="0 0 32 32" fill="none" xmlns="http://www.w3.org/2000/svg">
<path d="M21.3333 9.33325H21.3467" stroke="white" stroke-width="2.66667" stroke-linecap="round" stroke-linejoin="round"/>
<path d="M4.53332 23.9999H16C18.829 23.9999 21.5421 22.8761 23.5425 20.8757C25.5429 18.8753 26.6667 16.1622 26.6667 13.3333V9.33326C26.6697 8.19714 26.3098 7.08975 25.6395 6.17245C24.9691 5.25515 24.0234 4.57587 22.94 4.23361C21.8567 3.89135 20.6924 3.90397 19.6167 4.26966C18.541 4.63534 17.6103 5.33497 16.96 6.26659L2.66666 26.6666" stroke="white" stroke-width="2.66667" stroke-linecap="round" stroke-linejoin="round"/>
<path d="M26.6667 9.33325L29.3333 9.99992L26.6667 10.6666" stroke="white" stroke-width="2.66667" stroke-linecap="round" stroke-linejoin="round"/>
<path d="M13.3333 24V28" stroke="white" stroke-width="2.66667" stroke-linecap="round" stroke-linejoin="round"/>
<path d="M18.6667 23.6667V28.0001" stroke="white" stroke-width="2.66667" stroke-linecap="round" stroke-linejoin="round"/>
<path d="M9.33334 23.9999C10.9775 23.9999 12.5817 23.4932 13.9276 22.5489C15.2736 21.6046 16.2959 20.2685 16.8554 18.7225C17.415 17.1765 17.4846 15.4956 17.0548 13.9086C16.6249 12.3216 15.7166 10.9056 14.4533 9.85327" stroke="white" stroke-width="2.66667" stroke-linecap="round" stroke-linejoin="round"/>
</svg>
